<svg xmlns="http://www.w3.org/2000/svg" viewBox="0 0 187.7 160.56"><defs><style>.cls-1{fill:#b5af98;}</style></defs><g id="Layer_2" data-name="Layer 2"><g id="Layer_1-2" data-name="Layer 1"><path class="cls-1" d="M139.69,68v55a22.66,22.66,0,0,1-22.63,22.64H15V43.5A22.66,22.66,0,0,1,37.64,20.87h79.42A22.6,22.6,0,0,1,136.42,31.8L139,29.19,147.22,21A37.62,37.62,0,0,0,117.06,5.87H37.64A37.67,37.67,0,0,0,0,43.5V160.56H117.06a37.67,37.67,0,0,0,37.63-37.64V53Z"/><polygon class="cls-1" points="187.7 10.61 183.03 15.28 139.69 58.62 76.89 121.41 40.56 78.62 35.95 73.19 40.33 69.47 47.38 63.48 77.8 99.3 139.03 38.06 150.62 26.48 177.09 0 187.7 10.61"/></g></g></svg>