<svg xmlns="http://www.w3.org/2000/svg" viewBox="0 0 155.71 217.03"><defs><style>.cls-1{fill:#333;stroke:#333;stroke-miterlimit:10;stroke-width:5px;}</style></defs><g id="Layer_2" data-name="Layer 2"><g id="Layer_2-2" data-name="Layer 2"><path class="cls-1" d="M151.29,170.91l-5.63-13.62-3.48-8.42L112.36,76.7a4.84,4.84,0,0,0-1.93-2.28,4.89,4.89,0,0,0-.72-.37L77.85,60.89,37.47,44.2A75.34,75.34,0,0,1,74.21,32.67a3.84,3.84,0,0,0,2.58-1.17,3.76,3.76,0,0,0,1.06-2.62,3.81,3.81,0,0,0-4-3.81A83,83,0,0,0,29.05,40.72L15.43,35.09a96.36,96.36,0,0,1,126.45,1.4,4.86,4.86,0,0,0,3.25,1.24,4.76,4.76,0,0,0,3.39-1.4,4.85,4.85,0,0,0-.25-7A106,106,0,0,0,4.69,31.79C-.07,37.9,4.42,46.1,4.42,46.1l5.63,13.62,3.48,8.42,29.85,72.24a4.89,4.89,0,0,0,.37.72A4.84,4.84,0,0,0,46,143l31.82,13.15,40.35,16.67a75.53,75.53,0,0,1-36.72,11.51,3.84,3.84,0,0,0-2.58,1.17A3.81,3.81,0,0,0,81.8,192a83.06,83.06,0,0,0,44.82-15.63L140.24,182a96.35,96.35,0,0,1-127.93-2.79,4.84,4.84,0,0,0-6.72.09h0a4.81,4.81,0,0,0,.09,6.9A106,106,0,0,0,151,185.23C155.79,179.94,151.29,170.91,151.29,170.91ZM54.22,129.46a4.85,4.85,0,0,1-7.91-1.58L13.82,49.22a4.23,4.23,0,0,1,5.53-5.52L98,76.2a4.84,4.84,0,0,1,1.58,7.91Z"/></g></g></svg>